<mxfile host="Electron" agent="Mozilla/5.0 (Macintosh; Intel Mac OS X 10_15_7) AppleWebKit/537.36 (KHTML, like Gecko) draw.io/28.0.6 Chrome/138.0.7204.100 Electron/37.2.3 Safari/537.36" version="28.0.6">
  <diagram name="Page-1" id="mm6VfMoU3egLx-968ERl">
    <mxGraphModel dx="1412" dy="845" grid="1" gridSize="10" guides="1" tooltips="1" connect="1" arrows="1" fold="1" page="1" pageScale="1" pageWidth="850" pageHeight="1100" math="0" shadow="0">
      <root>
        <mxCell id="0" />
        <mxCell id="1" parent="0" />
        <mxCell id="yE1NTkxh-0s1ADCfzDLe-2" value="rdfs:subClassOf" style="edgeStyle=orthogonalEdgeStyle;rounded=0;orthogonalLoop=1;jettySize=auto;html=1;" edge="1" parent="1" source="aFoWWEtB3FT1Sz6_YX94-3" target="yE1NTkxh-0s1ADCfzDLe-1">
          <mxGeometry relative="1" as="geometry" />
        </mxCell>
        <mxCell id="yE1NTkxh-0s1ADCfzDLe-4" value="skos:definition" style="edgeStyle=orthogonalEdgeStyle;rounded=0;orthogonalLoop=1;jettySize=auto;html=1;exitX=1;exitY=0.5;exitDx=0;exitDy=0;entryX=0.5;entryY=0;entryDx=0;entryDy=0;" edge="1" parent="1" source="aFoWWEtB3FT1Sz6_YX94-3" target="yE1NTkxh-0s1ADCfzDLe-3">
          <mxGeometry relative="1" as="geometry" />
        </mxCell>
        <mxCell id="aFoWWEtB3FT1Sz6_YX94-3" value="mds:Student" style="rounded=1;whiteSpace=wrap;html=1;" parent="1" vertex="1">
          <mxGeometry x="180" y="360" width="120" height="60" as="geometry" />
        </mxCell>
        <mxCell id="aFoWWEtB3FT1Sz6_YX94-7" value="rdf:type" style="edgeStyle=orthogonalEdgeStyle;rounded=0;orthogonalLoop=1;jettySize=auto;html=1;" parent="1" source="aFoWWEtB3FT1Sz6_YX94-4" target="aFoWWEtB3FT1Sz6_YX94-3" edge="1">
          <mxGeometry relative="1" as="geometry" />
        </mxCell>
        <mxCell id="yE1NTkxh-0s1ADCfzDLe-8" value="rdf:type" style="edgeStyle=orthogonalEdgeStyle;rounded=0;orthogonalLoop=1;jettySize=auto;html=1;exitX=0;exitY=0.5;exitDx=0;exitDy=0;entryX=0.5;entryY=1;entryDx=0;entryDy=0;" edge="1" parent="1" source="aFoWWEtB3FT1Sz6_YX94-4" target="yE1NTkxh-0s1ADCfzDLe-6">
          <mxGeometry relative="1" as="geometry" />
        </mxCell>
        <mxCell id="aFoWWEtB3FT1Sz6_YX94-4" value="mds:GradStudent" style="rounded=1;whiteSpace=wrap;html=1;" parent="1" vertex="1">
          <mxGeometry x="180" y="480" width="120" height="60" as="geometry" />
        </mxCell>
        <mxCell id="yE1NTkxh-0s1ADCfzDLe-1" value="cco:Person" style="rounded=1;whiteSpace=wrap;html=1;" vertex="1" parent="1">
          <mxGeometry x="180" y="220" width="120" height="60" as="geometry" />
        </mxCell>
        <mxCell id="yE1NTkxh-0s1ADCfzDLe-3" value="&quot;A person who does science&quot;@en" style="rounded=0;whiteSpace=wrap;html=1;" vertex="1" parent="1">
          <mxGeometry x="360" y="480" width="120" height="60" as="geometry" />
        </mxCell>
        <mxCell id="yE1NTkxh-0s1ADCfzDLe-7" value="rdfs:subClassOf" style="edgeStyle=orthogonalEdgeStyle;rounded=0;orthogonalLoop=1;jettySize=auto;html=1;exitX=0.5;exitY=0;exitDx=0;exitDy=0;entryX=0.5;entryY=1;entryDx=0;entryDy=0;" edge="1" parent="1" source="yE1NTkxh-0s1ADCfzDLe-6" target="yE1NTkxh-0s1ADCfzDLe-1">
          <mxGeometry x="-0.6667" relative="1" as="geometry">
            <mxPoint as="offset" />
          </mxGeometry>
        </mxCell>
        <mxCell id="yE1NTkxh-0s1ADCfzDLe-6" value="mds:Employee" style="rounded=1;whiteSpace=wrap;html=1;" vertex="1" parent="1">
          <mxGeometry x="20" y="360" width="120" height="60" as="geometry" />
        </mxCell>
        <mxCell id="yE1NTkxh-0s1ADCfzDLe-9" value="cco:Person" style="rounded=1;whiteSpace=wrap;html=1;" vertex="1" parent="1">
          <mxGeometry x="560" y="220" width="120" height="60" as="geometry" />
        </mxCell>
        <mxCell id="yE1NTkxh-0s1ADCfzDLe-11" value="rdfs:subClassOf" style="edgeStyle=orthogonalEdgeStyle;rounded=0;orthogonalLoop=1;jettySize=auto;html=1;exitX=0.5;exitY=0;exitDx=0;exitDy=0;entryX=0.5;entryY=1;entryDx=0;entryDy=0;" edge="1" parent="1" source="yE1NTkxh-0s1ADCfzDLe-10" target="yE1NTkxh-0s1ADCfzDLe-9">
          <mxGeometry relative="1" as="geometry" />
        </mxCell>
        <mxCell id="yE1NTkxh-0s1ADCfzDLe-15" value="rdfs:subClassOf" style="edgeStyle=orthogonalEdgeStyle;rounded=0;orthogonalLoop=1;jettySize=auto;html=1;exitX=0.5;exitY=0;exitDx=0;exitDy=0;entryX=0.5;entryY=1;entryDx=0;entryDy=0;" edge="1" parent="1" source="yE1NTkxh-0s1ADCfzDLe-10" target="yE1NTkxh-0s1ADCfzDLe-14">
          <mxGeometry relative="1" as="geometry" />
        </mxCell>
        <mxCell id="yE1NTkxh-0s1ADCfzDLe-10" value="mds:Teenager" style="rounded=1;whiteSpace=wrap;html=1;" vertex="1" parent="1">
          <mxGeometry x="560" y="360" width="120" height="60" as="geometry" />
        </mxCell>
        <mxCell id="yE1NTkxh-0s1ADCfzDLe-13" value="rdf:type" style="edgeStyle=orthogonalEdgeStyle;rounded=0;orthogonalLoop=1;jettySize=auto;html=1;" edge="1" parent="1" source="yE1NTkxh-0s1ADCfzDLe-12" target="yE1NTkxh-0s1ADCfzDLe-10">
          <mxGeometry relative="1" as="geometry" />
        </mxCell>
        <mxCell id="yE1NTkxh-0s1ADCfzDLe-12" value="mds:CollegeStudent" style="rounded=1;whiteSpace=wrap;html=1;" vertex="1" parent="1">
          <mxGeometry x="560" y="480" width="120" height="60" as="geometry" />
        </mxCell>
        <mxCell id="yE1NTkxh-0s1ADCfzDLe-14" value="cco:Phase" style="rounded=1;whiteSpace=wrap;html=1;" vertex="1" parent="1">
          <mxGeometry x="710" y="220" width="120" height="60" as="geometry" />
        </mxCell>
      </root>
    </mxGraphModel>
  </diagram>
</mxfile>
